Coordinates
version=1
nRows=19
nColumns=24
inDegrees=yes

Units are S.I. units (second, meters, Newtons, ...)
Angles are in degrees.

endheader
time	pelvis_tilt	pelvis_list	pelvis_rotation	pelvis_tx	pelvis_ty	pelvis_tz	hip_flexion_r	hip_adduction_r	hip_rotation_r	knee_angle_r	ankle_angle_r	subtalar_angle_r	mtp_angle_r	hip_flexion_l	hip_adduction_l	hip_rotation_l	knee_angle_l	ankle_angle_l	subtalar_angle_l	mtp_angle_l	lumbar_extension	lumbar_bending	lumbar_rotation
      0.67100000	     -5.00833738	      2.88566918	      7.41252246	      0.00069416	      0.97814816	      0.23661760	     37.56150812	     -6.16399162	     -7.99287642	     -7.33879646	     10.41514842	     -0.01475481	     14.14207329	    -15.76891060	      4.36735530	      8.21052387	     -3.94662283	     16.12373857	     -0.27213514	      3.30039147	      2.73258252	     -6.55069894	     -5.81412859
      0.67516667	     -5.02183285	      2.72614664	      7.62681591	      0.00699241	      0.97743458	      0.23709902	     37.51211624	     -6.05257627	     -7.60236657	     -7.92561995	     10.35592554	     -0.69331992	     14.12663665	    -15.95773496	      4.07899938	      8.25899431	     -4.23713044	     16.13671513	     -0.19105715	      3.19440746	      2.80580550	     -6.40476095	     -5.99675133
      0.67933333	     -5.01965116	      2.56063409	      7.85320867	      0.01333598	      0.97679411	      0.23757361	     37.43212444	     -5.93829452	     -7.29105414	     -8.49700369	     10.24676373	     -1.33241394	     14.11912765	    -16.16253952	      3.77624029	      8.35856720	     -4.52435698	     16.05702574	     -0.20821046	      3.10596123	      2.87248686	     -6.25283965	     -6.18086023
      0.68350000	     -5.02446257	      2.37929027	      8.07231283	      0.01975037	      0.97618060	      0.23807844	     37.34429595	     -5.79817691	     -7.00763705	     -9.04215838	     10.08706204	     -1.94278309	     14.12139843	    -16.36073895	      3.45635297	      8.47734615	     -4.80655196	     15.94491743	     -0.25290898	      3.04435167	      2.95608943	     -6.08942835	     -6.35267508
      0.68766667	     -5.02284832	      2.19755180	      8.27904386	      0.02620869	      0.97560954	      0.23862245	     37.24172129	     -5.64279501	     -6.74344431	     -9.56425190	      9.84766500	     -2.55364712	     14.13357633	    -16.56040275	      3.13426540	      8.58167752	     -5.09679626	     15.79734496	     -0.30873047	      3.00190613	      3.03879738	     -5.92496104	     -6.51320527
      0.69183333	     -5.02312762	      2.00817542	      8.47679779	      0.03271980	      0.97507523	      0.23919446	     37.13082267	     -5.46940507	     -6.50803800	    -10.05743550	      9.53647123	     -3.15052480	     14.15893940	    -16.75120027	      2.80405067	      8.67694256	     -5.39819357	     15.62432194	     -0.37188842	      2.97906357	      3.12948138	     -5.75305117	     -6.65800088
      0.69600000	     -5.03149114	      1.81262793	      8.66107646	      0.03928459	      0.97456973	      0.23981302	     37.02024604	     -5.27640971	     -6.28482076	    -10.52143218	      9.15836149	     -3.74452831	     14.19990190	    -16.92756341	      2.46783743	      8.76258038	     -5.70881807	     15.42532814	     -0.42884986	      2.97822782	      3.24612668	     -5.58074598	     -6.78721788
      0.70016667	     -5.03342433	      1.60940438	      8.83377807	      0.04590456	      0.97411546	      0.24046255	     36.89586190	     -5.06329883	     -6.08544961	    -10.95908245	      8.71339875	     -4.34660863	     14.26077894	    -17.10298459	      2.12261428	      8.82378380	     -6.03025298	     15.19034099	     -0.48789506	      3.00429383	      3.35956341	     -5.39981935	     -6.89723455
      0.70433333	     -5.04064181	      1.39556089	      8.98912865	      0.05258226	      0.97369100	      0.24115793	     36.77485229	     -4.82677823	     -5.90852921	    -11.37323225	      8.18943911	     -4.92890802	     14.34036050	    -17.26948171	      1.76780413	      8.87009693	     -6.35509644	     14.92401761	     -0.53383700	      3.05958597	      3.49582041	     -5.20251402	     -6.98391961
      0.70850000	     -5.04401061	      1.17185072	      9.12341637	      0.05931283	      0.97330909	      0.24189257	     36.64908808	     -4.56512750	     -5.74209126	    -11.76880333	      7.59521406	     -5.50476991	     14.43159884	    -17.43309951	      1.40516327	      8.89041780	     -6.69001544	     14.62809187	     -0.57540703	      3.14169027	      3.63938316	     -4.99140449	     -7.04947874
      0.71266667	     -5.07149081	      0.93432382	      9.23579093	      0.06611390	      0.97293384	      0.24268039	     36.55302161	     -4.27841585	     -5.59696217	    -12.15675282	      6.95489170	     -6.01618599	     14.51349045	    -17.57189645	      1.03480839	      8.90782982	     -7.02011909	     14.30536132	     -0.60176455	      3.23045790	      3.82560125	     -4.75189741	     -7.09227003
      0.71683333	     -5.07610763	      0.71182180	      9.33552665	      0.07291214	      0.97263663	      0.24352588	     36.43391702	     -3.98742961	     -5.42665509	    -12.52899220	      6.24409631	     -6.63228015	     14.63331603	    -17.70942207	      0.67723834	      8.86892676	     -7.40007565	     13.93177073	     -0.64440344	      3.37743199	      3.98148419	     -4.56675863	     -7.11560565
      0.72100000	     -5.10722199	      0.46156749	      9.40555233	      0.07979019	      0.97233489	      0.24441036	     36.35547405	     -3.65891582	     -5.27542801	    -12.91399942	      5.52292942	     -7.14119876	     14.73889416	    -17.82556049	      0.30220677	      8.84272852	     -7.76201673	     13.53994502	     -0.66316517	      3.52447202	      4.18444883	     -4.30844145	     -7.11709063
      0.72516667	     -5.11401924	      0.25393404	      9.45011219	      0.08664132	      0.97211764	      0.24538299	     36.25944361	     -3.34385663	     -5.06756660	    -13.30015864	      4.71905733	     -7.73967997	     14.98461629	    -17.94754258	     -0.02853940	      8.75824481	     -8.16555136	     13.07089258	     -0.65591751	      3.89885564	      4.34698939	     -4.14888520	     -7.08376827
      0.72933333	     -5.13265255	     -0.01695039	      9.48349573	      0.09359649	      0.97192191	      0.24635797	     36.18231794	     -2.97042677	     -4.93289284	    -13.69722543	      4.00138921	     -8.24463585	     15.12239019	    -18.04004574	     -0.41878896	      8.65251121	     -8.59500066	     12.62525419	     -0.71202783	      4.14307654	      4.56672704	     -3.87929771	     -7.04720176
      0.73350000	     -5.17087881	     -0.27843207	      9.48129092	      0.10057003	      0.97173497	      0.24740361	     36.14923622	     -2.58735630	     -4.76366084	    -14.13536916	      3.29761397	     -8.67322441	     15.22745181	    -18.11476913	     -0.78668234	      8.55755838	     -9.01900189	     12.11543555	     -0.72244814	      4.35823429	      4.78943318	     -3.60140874	     -6.99259349
      0.73766667	     -5.16720227	     -0.49591152	      9.45878779	      0.10749709	      0.97166605	      0.24852694	     36.07998709	     -2.21977005	     -4.53693130	    -14.58624815	      2.52267267	     -9.23013698	     15.42382529	    -18.20537135	     -1.11145651	      8.40462594	     -9.50052834	     11.55246924	     -0.70686282	      4.81700779	      4.95116992	     -3.42994396	     -6.88792475
      0.74183333	     -5.17274709	     -0.77730581	      9.40899939	      0.11452842	      0.97160276	      0.24966921	     36.04075362	     -1.79043630	     -4.39416793	    -15.07773858	      1.90500413	     -9.56795702	     16.71935723	    -18.26115266	     -1.49802926	      8.13145349	    -10.01831759	     10.95569312	     -0.62145362	      8.33265075	      5.16519463	     -3.13117854	     -6.72748976
      0.74600000	     -5.21373213	     -1.02450702	      9.35165105	      0.12153611	      0.97155691	      0.25083104	     36.05365427	     -1.38958305	     -4.19845754	    -15.61393597	      1.32507525	     -9.98186252	     16.70509745	    -18.27956433	     -1.82672328	      8.02264670	    -10.54629568	     10.30916507	     -0.75809341	      8.38588947	      5.40930184	     -2.89043563	     -6.70696062
